<?xml version="1.0" encoding="utf-8"?>
<!-- Generator: Adobe Illustrator 26.2.1, SVG Export Plug-In . SVG Version: 6.00 Build 0)  -->
<svg version="1.1" xmlns="http://www.w3.org/2000/svg" xmlns:xlink="http://www.w3.org/1999/xlink" x="0px" y="0px"
	 viewBox="0 0 1000 1000" style="enable-background:new 0 0 1000 1000;" xml:space="preserve">
<style type="text/css">
	.st0{fill:#F0F0F0;}
	.st1{fill:#E0E0E0;}
	.st2{fill:#27DEBF;}
	.st3{opacity:0.15;}
	.st4{fill:#FFFFFF;}
	.st5{opacity:0.2;}
	.st6{opacity:0.4;fill:#FFFFFF;}
	.st7{fill:#FAFAFA;}
	.st8{fill:#455A64;}
	.st9{opacity:0.3;}
	.st10{opacity:0.5;fill:#FFFFFF;}
	.st11{opacity:0.1;}
	.st12{fill:#B16668;}
	.st13{fill:#37474F;}
	.st14{fill:#263238;}
	.st15{fill:#F5F5F5;}
	.st16{fill:#9A4A4D;}
	.st17{fill:#E6E6E6;}
	.st18{opacity:7.000000e-02;}
	.st19{opacity:8.000000e-02;}
	.st20{opacity:0.4;}
	.st21{opacity:0.5;}
</style>
<g id="Floor">
	<ellipse id="Floor_4_" class="st0" cx="500" cy="730.8" rx="454.6" ry="269.7"/>
</g>
<g id="Shadows">
	<ellipse id="Shadow_35_" class="st1" cx="669.4" cy="690.3" rx="148" ry="85.5"/>
	<ellipse id="Shadow_20_" class="st1" cx="297.3" cy="780.4" rx="136.1" ry="78.6"/>
	<path id="Shadow_17_" class="st1" d="M320.2,843.4l233.4,134.7c1.3,0.7,3.3,0.7,4.5,0l122.9-71c1.3-0.7,1.3-1.9,0-2.6L447.6,769.9
		c-1.3-0.7-3.3-0.7-4.5,0l-122.9,71C318.9,841.5,318.9,842.7,320.2,843.4z"/>
</g>
<g id="Plants">
	<g id="Plants_6_">
		<g id="XMLID_1491_">
			<path id="XMLID_1509_" class="st2" d="M866.6,638.2l-19.9-11.5c0,0-4.9-42.7-1.6-75.7c4.6-46.4,34.6-102.3,70.3-89.2
				c35.8,13.1-16.4,60.4-28,99.8C875.7,600.9,866.6,638.2,866.6,638.2z"/>
			<path id="XMLID_1508_" class="st3" d="M866.6,638.2l-19.9-11.5c0,0-4.9-42.7-1.6-75.7c4.6-46.4,34.6-102.3,70.3-89.2
				c35.8,13.1-16.4,60.4-28,99.8C875.7,600.9,866.6,638.2,866.6,638.2z"/>
			<path id="XMLID_1506_" class="st4" d="M856.1,633.3C856.1,633.3,856.1,633.3,856.1,633.3c0.7,0,1.2-0.6,1.2-1.2
				c-3.5-103.2,47.9-155.1,48.4-155.6c0.5-0.5,0.5-1.2,0-1.7c-0.5-0.5-1.2-0.5-1.7,0c-0.5,0.5-52.6,53.2-49.1,157.4
				C854.9,632.8,855.5,633.3,856.1,633.3z"/>
		</g>
		<g id="XMLID_1480_">
			<path id="XMLID_1489_" class="st2" d="M879.1,645.3l-14.2-8.2c0,0-2.4-29.3,11.9-64.9c12.5-31,43.5-56.7,59.1-51.3
				c15.6,5.4,15.2,16.5,7.6,28.1C936,560.7,889.7,588.4,879.1,645.3z"/>
			<path id="XMLID_1487_" class="st4" d="M871.6,642.2L871.6,642.2c0.7,0,1.2-0.5,1.2-1.2c-0.3-65.2,61-109.3,61.6-109.8
				c0.5-0.4,0.7-1.1,0.3-1.7c-0.4-0.5-1.1-0.7-1.7-0.3c-0.6,0.4-62.9,45.3-62.6,111.8C870.4,641.7,871,642.2,871.6,642.2z"/>
		</g>
	</g>
	<g id="Plants_7_">
		<g id="XMLID_1999_">
			<g id="XMLID_2004_">
				<path id="XMLID_2005_" class="st2" d="M143.7,619.7l16.8-9.7c0,0,10-41.5,6-78.9c-5.6-52.6-40.2-72.3-53.4-67.8
					c-13.2,4.5-17,19.8,4.8,51.1C130.8,532.9,146.5,571.4,143.7,619.7z"/>
			</g>
			<g id="XMLID_2002_" class="st3">
				<path id="XMLID_2003_" d="M143.7,619.7l16.8-9.7c0,0,10-41.5,6-78.9c-5.6-52.6-40.2-72.3-53.4-67.8c-13.2,4.5-17,19.8,4.8,51.1
					C130.8,532.9,146.5,571.4,143.7,619.7z"/>
			</g>
			<g id="XMLID_2000_">
				<path id="XMLID_2001_" class="st4" d="M150.6,599.3c-0.1,0-0.1,0-0.2,0c-0.6-0.1-1-0.7-0.9-1.4c9.2-48.5-7.7-103-28.7-125.6
					c-0.4-0.5-0.4-1.2,0.1-1.6c0.5-0.4,1.2-0.4,1.6,0.1c21.4,23.1,38.6,78.4,29.3,127.6C151.7,599,151.2,599.3,150.6,599.3z"/>
			</g>
		</g>
		<g id="XMLID_1991_">
			<g id="XMLID_1996_">
				<path id="XMLID_1998_" class="st2" d="M99.7,645.1c-2.7,1.4-9.7-4.7-11.7-6.2c-3.4-2.5-6-6-7.7-9.8c-2-4.5-2.3-9.2-1.4-14
					c0.5-2.5,1.3-4.9,2.1-7.3c0.8-2.3,1.6-4.7,2.4-7c0.8-2.3,1.6-4.7,1.4-7.2c-0.4-4.9-4.5-8.6-8.3-11.7c-4.2-3.5-8.5-8-8.2-13.9
					c0.2-4.5,2.8-8.6,5.8-12.1c3-3.4,6.5-6.4,9.2-10c2-2.6,3.6-5.7,3.4-9c-0.1-2-0.8-4-1.7-5.8c-1.9-3.9-4.5-7.6-5.7-11.8
					c-1.2-4.2-0.8-9.3,2.6-12.1c2.8-2.3,6.7-2.4,10.3-2c3.3,0.4,6.4,2,9.3,3.8c9.1,5.7,13.9,17,23.6,21.5c3.7,1.7,7.9,2.3,11.9,3.5
					c3.9,1.3,7.9,3.5,9.6,7.3c3.3,7.5-3.9,16.1-1.8,23.9c1.9,6.9,8.4,9.9,11.8,16.2c1.5,2.8,1.7,5.9,1.3,9
					c-0.7,5.3-1.7,9.1-4.5,14.9c-2.4,4.8-9,13.8-9,13.8S100.1,644.9,99.7,645.1z"/>
			</g>
			<g id="XMLID_1994_">
				<path id="XMLID_1995_" class="st4" d="M125.4,631.7C125.4,631.7,125.3,631.7,125.4,631.7c-0.7-0.1-1.2-0.6-1.1-1.3
					c4.3-46.1-14.9-98.2-30-113.8c-0.4-0.5-0.4-1.2,0-1.6c0.5-0.4,1.2-0.4,1.6,0c15.4,15.9,35,68.9,30.7,115.7
					C126.5,631.3,126,631.8,125.4,631.7z"/>
			</g>
			<g id="XMLID_1992_">
				<path id="XMLID_1993_" class="st4" d="M120.8,574.9c-0.1,0-0.2,0-0.3-0.1c-14.6-5.3-33.1-7.1-33.3-7.1c-0.6-0.1-1.1-0.6-1.1-1.3
					c0.1-0.6,0.6-1.1,1.3-1.1c0.2,0,18.9,1.8,33.8,7.2c0.6,0.2,0.9,0.9,0.7,1.5C121.8,574.6,121.3,574.9,120.8,574.9z"/>
			</g>
		</g>
	</g>
</g>
<g id="Speech_Bubble">
	<g id="Speach_Bubble_8_">
		<g>
			<path id="XMLID_1504_" class="st2" d="M539.8,30.1l-151.7,87.6c-1.3,0.7-2.3,2.6-2.3,4.1v63.1c0,1.5,1.1,3.3,2.4,4l8.4,4.7
				c1.3,0.7,3.4,0.7,4.7,0l151.7-87.6c1.3-0.7,2.3-2.6,2.3-4.1V38.8c0-1.5-1.1-3.3-2.4-4l-8.4-4.7C543.2,29.3,541.1,29.3,539.8,30.1
				z"/>
			<path id="XMLID_1502_" class="st2" d="M398.9,192.2v-63.1c0-1.5,1-3.3,2.3-4.1l151.7-87.6c1.3-0.7,2.3-0.1,2.3,1.4v63.1
				c0,1.5-1,3.3-2.3,4.1l-151.7,87.6C399.9,194.3,398.9,193.7,398.9,192.2z"/>
			<path id="XMLID_1501_" class="st5" d="M401.2,193.5c-1.2,0.7-3.5,0.7-4.7,0l-8.4-4.7c-1.3-0.7-2.4-2.5-2.4-4v-63.1
				c0-0.8,0.3-1.6,0.7-2.4l13,7.4c-0.4,0.7-0.7,1.6-0.7,2.3v63.1C398.9,193.6,399.8,194.3,401.2,193.5z"/>
			<path id="XMLID_1495_" class="st6" d="M555.2,38.4c-0.2-1.2-1.1-1.6-2.3-0.9l-151.7,87.6c-0.6,0.4-1.2,1-1.7,1.8l-13.1-7.4
				c0.4-0.7,1-1.3,1.6-1.7l151.7-87.6c1.3-0.7,3.4-0.8,4.7,0l8.4,4.7C554.1,35.4,555.1,37,555.2,38.4z"/>
		</g>
		<g>
			<path id="XMLID_1494_" class="st2" d="M379.4,170.9c-1.5-0.9-12.5-7.1-12.8-7.3c-1.1-0.7-1.5-2.3-0.5-3.3l19.9-20.7l12.9,7.3
				L379,167.7C378,168.7,378.4,170.2,379.4,170.9z"/>
			<path id="XMLID_1493_" class="st6" d="M379.4,170.9c-1.5-0.9-12.5-7.1-12.8-7.3c-1.1-0.7-1.5-2.3-0.5-3.3l19.9-20.7l12.9,7.3
				L379,167.7C378,168.7,378.4,170.2,379.4,170.9z"/>
			<path id="XMLID_1492_" class="st2" d="M398.9,147L379,167.7c-1.3,1.4-0.4,3.4,1.3,3.6l18.6-0.1L398.9,147z"/>
		</g>
		<g>
			<path class="st7" d="M424.6,127.6c0.2-0.1,0.4-0.1,0.6,0c0.2,0.2,0.2,0.4,0.2,0.8v3.4c0,0.3-0.1,0.7-0.2,1.1
				c-0.2,0.4-0.3,0.7-0.4,1l-4.5,9.9c0.9-0.3,1.8-0.5,2.5-0.4c0.7,0.1,1.4,0.4,1.9,0.9c0.5,0.5,0.9,1.2,1.2,2.2
				c0.3,0.9,0.4,2.1,0.4,3.4c0,1.6-0.2,3.2-0.6,4.8c-0.4,1.5-1,2.9-1.8,4.3c-0.7,1.3-1.6,2.5-2.6,3.6c-1,1.1-2.1,1.9-3.3,2.6
				c-1.4,0.8-2.7,1.3-3.7,1.4c-1.1,0.1-1.9-0.1-2.7-0.5c-0.7-0.4-1.2-1-1.6-1.9c-0.4-0.8-0.6-1.7-0.6-2.7c0-0.4,0.1-0.7,0.2-1.1
				c0.2-0.3,0.4-0.6,0.6-0.7l2.4-1.4c0.2-0.1,0.4-0.1,0.5,0c0.1,0.1,0.3,0.3,0.4,0.6c0.1,0.3,0.3,0.6,0.5,0.8
				c0.2,0.2,0.5,0.4,0.8,0.4c0.3,0.1,0.8,0,1.3-0.1c0.5-0.1,1.1-0.4,1.9-0.8c1.3-0.7,2.3-1.7,3-2.9c0.8-1.2,1.2-2.5,1.2-4
				c0-1.4-0.4-2.2-1.2-2.4c-0.8-0.2-1.8,0.1-3,0.8l-2.6,1.5c-0.2,0.1-0.4,0.1-0.6,0c-0.2-0.2-0.2-0.4-0.2-0.8v-3.4
				c0-0.3,0.1-0.7,0.2-1.1c0.2-0.4,0.3-0.7,0.4-1l4.3-9.5l-8.5,4.9c-0.2,0.1-0.4,0.1-0.6,0c-0.2-0.2-0.2-0.4-0.2-0.8v-3.4
				c0-0.3,0.1-0.7,0.2-1c0.2-0.3,0.4-0.6,0.6-0.7L424.6,127.6z"/>
			<path class="st7" d="M432.3,124.5c0-0.3,0.1-0.7,0.2-1c0.2-0.3,0.4-0.6,0.6-0.7l11.6-6.7c0.2-0.1,0.4-0.1,0.6,0
				c0.2,0.2,0.2,0.4,0.2,0.8v3.4c0,0.3-0.1,0.7-0.2,1c-0.2,0.3-0.4,0.6-0.6,0.7l-8.7,5l-0.3,6.3c0.6-0.7,1.1-1.2,1.6-1.6
				c0.5-0.4,1-0.7,1.3-0.9c1.2-0.7,2.2-1,3.2-1.1c1-0.1,1.8,0.1,2.6,0.6c0.7,0.5,1.3,1.3,1.7,2.5c0.4,1.1,0.6,2.6,0.6,4.3
				c0,2-0.2,3.9-0.6,5.6c-0.4,1.7-1,3.2-1.7,4.6c-0.7,1.4-1.6,2.5-2.6,3.5c-1,1-2,1.8-3.1,2.5c-1.4,0.8-2.6,1.3-3.7,1.3
				c-1,0.1-1.9-0.1-2.5-0.6c-0.7-0.5-1.2-1.2-1.5-2.1c-0.3-0.9-0.5-2-0.6-3.2c0-0.4,0.1-0.7,0.2-1.1c0.2-0.3,0.4-0.6,0.6-0.7
				l2.5-1.4c0.2-0.1,0.4-0.1,0.6,0c0.2,0.1,0.3,0.3,0.3,0.6c0.1,0.7,0.3,1.1,0.6,1.4c0.3,0.3,0.6,0.5,0.9,0.6c0.3,0.1,0.7,0,1.2-0.1
				c0.4-0.2,0.9-0.4,1.4-0.6c1.2-0.7,2.1-1.7,2.8-3.1c0.7-1.4,1.1-2.9,1.1-4.7c0-1.4-0.4-2.4-1.1-2.9c-0.7-0.5-1.7-0.5-2.8,0.2
				c-0.6,0.4-1.1,0.7-1.5,1.1c-0.4,0.3-0.7,0.7-0.9,1c-0.2,0.3-0.4,0.6-0.6,0.9c-0.2,0.2-0.4,0.5-0.7,0.6l-2.8,1.6
				c-0.2,0.1-0.4,0.1-0.6,0c-0.2-0.2-0.2-0.4-0.2-0.8L432.3,124.5z"/>
			<path class="st7" d="M455.1,136c0.2-0.1,0.4-0.1,0.6,0c0.2,0.2,0.2,0.4,0.2,0.8v4.6c0,0.3-0.1,0.7-0.2,1
				c-0.2,0.3-0.4,0.6-0.6,0.7l-2.9,1.7c-0.2,0.1-0.4,0.1-0.6,0c-0.2-0.2-0.2-0.4-0.2-0.8v-4.6c0-0.3,0.1-0.7,0.2-1
				c0.2-0.3,0.4-0.6,0.6-0.7L455.1,136z"/>
			<path class="st7" d="M464.6,130.5c0.2-0.1,0.4-0.1,0.6,0c0.2,0.2,0.2,0.4,0.2,0.8v4.6c0,0.3-0.1,0.7-0.2,1
				c-0.2,0.3-0.4,0.6-0.6,0.7l-2.9,1.7c-0.2,0.1-0.4,0.1-0.6,0c-0.2-0.2-0.2-0.4-0.2-0.8v-4.6c0-0.3,0.1-0.7,0.2-1
				c0.2-0.3,0.4-0.6,0.6-0.7L464.6,130.5z"/>
			<path class="st7" d="M474.2,125c0.2-0.1,0.4-0.1,0.6,0c0.2,0.2,0.2,0.4,0.2,0.8v4.6c0,0.3-0.1,0.7-0.2,1
				c-0.2,0.3-0.4,0.6-0.6,0.7l-2.9,1.7c-0.2,0.1-0.4,0.1-0.6,0c-0.2-0.2-0.2-0.4-0.2-0.8v-4.6c0-0.3,0.1-0.7,0.2-1
				c0.2-0.3,0.4-0.6,0.6-0.7L474.2,125z"/>
			<path class="st7" d="M494.8,87.1c0.2-0.1,0.4-0.1,0.6,0c0.2,0.2,0.2,0.4,0.2,0.8v3.4c0,0.3-0.1,0.7-0.2,1.1
				c-0.2,0.4-0.3,0.7-0.4,1l-4.5,9.9c0.9-0.3,1.8-0.5,2.5-0.4c0.7,0.1,1.4,0.4,1.9,0.9c0.5,0.5,0.9,1.2,1.2,2.2
				c0.3,0.9,0.4,2.1,0.4,3.5c0,1.6-0.2,3.2-0.6,4.8c-0.4,1.5-1,2.9-1.8,4.3c-0.7,1.3-1.6,2.5-2.7,3.6c-1,1.1-2.1,1.9-3.3,2.6
				c-1.4,0.8-2.7,1.3-3.7,1.4c-1.1,0.1-1.9-0.1-2.6-0.5c-0.7-0.4-1.2-1-1.6-1.9c-0.4-0.8-0.6-1.7-0.6-2.7c0-0.4,0.1-0.7,0.2-1.1
				c0.2-0.3,0.4-0.6,0.6-0.7l2.4-1.4c0.2-0.1,0.4-0.1,0.5,0c0.1,0.1,0.3,0.3,0.4,0.6c0.1,0.3,0.3,0.6,0.5,0.8
				c0.2,0.2,0.5,0.4,0.8,0.4c0.3,0.1,0.8,0,1.3-0.1c0.5-0.1,1.1-0.4,1.9-0.8c1.3-0.7,2.3-1.7,3-2.9c0.8-1.2,1.2-2.5,1.2-4
				c0-1.4-0.4-2.2-1.2-2.4c-0.8-0.2-1.8,0.1-3,0.8l-2.6,1.5c-0.2,0.1-0.4,0.1-0.6,0c-0.2-0.2-0.2-0.4-0.2-0.8v-3.4
				c0-0.3,0.1-0.7,0.2-1.1c0.2-0.4,0.3-0.7,0.4-1l4.3-9.5l-8.5,4.9c-0.2,0.1-0.4,0.1-0.6,0c-0.2-0.2-0.2-0.4-0.2-0.8v-3.4
				c0-0.3,0.1-0.7,0.2-1c0.2-0.3,0.4-0.6,0.6-0.7L494.8,87.1z"/>
			<path class="st7" d="M500.8,105.6c0-1.8,0.2-3.5,0.6-5c0.4-1.5,0.9-3,1.4-4.5l5.9-16.1c0.1-0.2,0.2-0.5,0.3-0.8
				c0.1-0.3,0.3-0.5,0.6-0.7l2.8-1.6c0.2-0.1,0.4-0.1,0.6,0c0.2,0.2,0.2,0.4,0.2,0.8c0,0.2,0,0.3,0,0.4c0,0.1-0.1,0.2-0.1,0.3
				l-3.8,10.6c1.2-0.7,2.3-1,3.3-1c1,0,1.9,0.3,2.6,0.9c0.7,0.6,1.3,1.5,1.7,2.7c0.4,1.2,0.6,2.6,0.6,4.3c0,1.7-0.2,3.4-0.6,5.1
				c-0.4,1.7-1,3.2-1.7,4.7c-0.7,1.5-1.6,2.8-2.6,3.9c-1,1.2-2.2,2.1-3.4,2.8c-1.2,0.7-2.4,1.1-3.4,1.1c-1,0-1.9-0.3-2.6-0.9
				c-0.7-0.6-1.3-1.5-1.7-2.7C501,108.8,500.8,107.3,500.8,105.6z M513.4,98.3c0-1.6-0.4-2.8-1.1-3.4c-0.7-0.7-1.8-0.6-3.1,0.2
				c-1.3,0.8-2.4,1.9-3.1,3.4c-0.7,1.5-1.1,3.1-1.1,4.7c0,1.6,0.4,2.8,1.1,3.5c0.7,0.7,1.8,0.7,3.1-0.1c1.3-0.8,2.4-1.9,3.1-3.5
				C513,101.5,513.4,100,513.4,98.3z"/>
			<path class="st7" d="M525.6,95.3c0.2-0.1,0.4-0.1,0.6,0c0.2,0.2,0.2,0.4,0.2,0.8v4.6c0,0.3-0.1,0.7-0.2,1
				c-0.2,0.3-0.4,0.6-0.6,0.7l-2.9,1.7c-0.2,0.1-0.4,0.1-0.6,0c-0.2-0.2-0.2-0.4-0.2-0.8v-4.6c0-0.3,0.1-0.7,0.2-1
				c0.2-0.3,0.4-0.6,0.6-0.7L525.6,95.3z"/>
			<path class="st7" d="M535.1,89.8c0.2-0.1,0.4-0.1,0.6,0c0.2,0.2,0.2,0.4,0.2,0.8v4.6c0,0.3-0.1,0.7-0.2,1
				c-0.2,0.3-0.4,0.6-0.6,0.7l-2.9,1.7c-0.2,0.1-0.4,0.1-0.6,0c-0.2-0.2-0.2-0.4-0.2-0.8v-4.6c0-0.3,0.1-0.7,0.2-1
				c0.2-0.3,0.4-0.6,0.6-0.7L535.1,89.8z"/>
			<path class="st7" d="M544.7,84.3c0.2-0.1,0.4-0.1,0.6,0c0.2,0.2,0.2,0.4,0.2,0.8v4.6c0,0.3-0.1,0.7-0.2,1
				c-0.2,0.3-0.4,0.6-0.6,0.7l-2.9,1.7c-0.2,0.1-0.4,0.1-0.6,0c-0.2-0.2-0.2-0.4-0.2-0.8v-4.6c0-0.3,0.1-0.7,0.2-1
				c0.2-0.3,0.4-0.6,0.6-0.7L544.7,84.3z"/>
		</g>
	</g>
</g>
<g id="Chair">
	<g id="Chair_2_">
		<g id="XMLID_14889_">
			<g id="XMLID_14914_">
				<path id="XMLID_14915_" class="st8" d="M670.2,765.8c1.7,0,3.1-1.4,3.1-3.1V563.2c0-1.7-1.4-3.1-3.1-3.1c-1.7,0-3.1,1.4-3.1,3.1
					v199.5C667.1,764.4,668.5,765.8,670.2,765.8z"/>
			</g>
			<g id="XMLID_14912_">
				<path id="XMLID_14913_" class="st8" d="M546.8,693.2c1.2,0,2.4-0.7,2.9-2l61.2-154.9c0.6-1.6-0.2-3.4-1.7-4
					c-1.6-0.6-3.4,0.1-4,1.7l-61.2,154.9c-0.6,1.6,0.2,3.4,1.7,4C546,693.1,546.4,693.2,546.8,693.2z"/>
			</g>
			<g id="XMLID_14910_">
				<path id="XMLID_14911_" class="st8" d="M554.1,674.6c0.8,0,1.6-0.3,2.3-1l113.8-120.5l113.6,120c1.2,1.2,3.1,1.3,4.4,0.1
					c1.2-1.2,1.3-3.1,0.1-4.4L672.5,546.5c-0.6-0.6-1.4-1-2.3-1h0c-0.9,0-1.7,0.4-2.3,1L551.9,669.3c-1.2,1.2-1.1,3.2,0.1,4.4
					C552.6,674.3,553.4,674.6,554.1,674.6z"/>
			</g>
			<g id="XMLID_14908_">
				<path id="XMLID_14909_" class="st8" d="M793.7,693.2c0.4,0,0.8-0.1,1.1-0.2c1.6-0.6,2.4-2.4,1.7-4l-61.2-154.9
					c-0.6-1.6-2.4-2.4-4-1.7c-1.6,0.6-2.4,2.4-1.7,4l61.2,154.9C791.3,692.4,792.4,693.2,793.7,693.2z"/>
			</g>
			<g id="XMLID_14902_">
				<path id="XMLID_14907_" class="st2" d="M551,669.8l-8.1,21.3c0,0.2-0.1,0.4-0.1,0.5c0,0.1,0,0.3,0,0.4c0.1,0.4,0.6,1,1.2,1.3
					c1.4,0.8,3.6,0.8,4.9,0c0.5-0.3,0.8-0.6,1-1c0,0,0,0,0,0l0.1-0.3l7.5-20L551,669.8z"/>
			</g>
			<g id="XMLID_14892_">
				<path id="XMLID_14896_" class="st2" d="M789.5,669.8l8.1,21.3c0,0.2,0.1,0.4,0.1,0.5c0,0.1,0,0.3,0,0.4c-0.1,0.4-0.6,1-1.2,1.3
					c-1.4,0.8-3.6,0.8-4.9,0c-0.5-0.3-0.8-0.6-1-1c0,0,0,0,0,0l-0.1-0.3l-7.5-20L789.5,669.8z"/>
			</g>
			<g id="XMLID_14890_">
				<path id="XMLID_14891_" class="st2" d="M666.6,747.2l0,17.7c0,0.5,0.3,1.1,1,1.5c1.4,0.8,3.7,0.8,5.1,0c0.7-0.4,1-0.9,1-1.5
					v-17.7C671.4,746,669,746,666.6,747.2z"/>
			</g>
		</g>
		<g id="XMLID_14882_">
			<path id="XMLID_14888_" class="st2" d="M531.5,534.2c0-5.6,4.9-11.5,15.2-18.2c19-12.3,74.4-43.3,101-58c0.1-0.2,0.2-0.2,0.2-0.2
				c20.5-12.4,26.7-65.5,40.9-110.5c4.8-15.3,10.7-24,17.8-28.1c1.7-1,7.8-4.3,9.2-5.2c13.9-8.3,32.2,1.7,54.9,14.1
				c20.9,11.5,37.3,26.1,40.6,65.1c2,23.7,0.1,69-4.7,103.4c0,0,0,0,0,0c-7,57.4-15.5,57.5-28,67.1c-21.4,16.5-69.6,39.7-89.8,47.7
				c-36.8,14.5-66.9-7.8-89.3-18.9c-22.4-11.1-50-28.4-59.4-35.2c-5.6-4.1-8.5-8.2-8.5-12.5C531.5,543.1,531.5,536,531.5,534.2z"/>
			<path id="XMLID_1466_" class="st9" d="M531.5,534.2c0-5.6,4.9-11.5,15.2-18.2c19-12.3,74.4-43.3,101-58c0.1-0.2,0.2-0.2,0.2-0.2
				c20.5-12.4,26.7-65.5,40.9-110.5c4.8-15.3,10.7-24,17.8-28.1c1.7-1,7.8-4.3,9.2-5.2c13.9-8.3,32.2,1.7,54.9,14.1
				c20.9,11.5,37.3,26.1,40.6,65.1c2,23.7,0.1,69-4.7,103.4c0,0,0,0,0,0c-7,57.4-15.5,57.5-28,67.1c-21.4,16.5-69.6,39.7-89.8,47.7
				c-36.8,14.5-66.9-7.8-89.3-18.9c-22.4-11.1-50-28.4-59.4-35.2c-5.6-4.1-8.5-8.2-8.5-12.5C531.5,543.1,531.5,536,531.5,534.2z"/>
			<g id="XMLID_14886_">
				<path id="XMLID_14887_" class="st2" d="M599.4,581.9c-22.4-11.1-50-28.4-59.4-35.2c-12.8-9.3-11.6-18.7,6.7-30.6
					C572,499.6,662.3,450,662.3,450s130.9,77.3,125.3,91.5c-5.6,14.3-73.3,49.2-98.9,59.3C651.9,615.3,621.8,593,599.4,581.9z"/>
			</g>
			<path id="XMLID_14885_" class="st2" d="M707.3,318.8c13.8-7.2,31.7,2.6,53.8,14.7c14.2,7.8,26.3,17,33.6,34.2l9.4-5.4
				c-7.3-17.2-19.4-26.4-33.6-34.2c-22.7-12.5-41-22.4-54.9-14.1C714.5,314.9,709.6,317.5,707.3,318.8z"/>
			<path id="XMLID_1465_" class="st10" d="M707.3,318.8c13.8-7.2,31.7,2.6,53.8,14.7c14.2,7.8,26.3,17,33.6,34.2l9.4-5.4
				c-7.3-17.2-19.4-26.4-33.6-34.2c-22.7-12.5-41-22.4-54.9-14.1C714.5,314.9,709.6,317.5,707.3,318.8z"/>
			<g id="XMLID_14883_">
				<path id="XMLID_14884_" class="st2" d="M761.2,333.6c-34-18.6-58-31.9-72.4,13.8c-14.2,45-20.4,98-40.9,110.5
					c0,0,13.4,4.4,61,27.8c19.6,9.6,32.4,19.3,50.7,30.8c26.9,16.9,24.9,29.5,24.9,29.5c13.4-11.1,20.6-108.4,17.3-147.3
					C798.5,359.7,782.1,345.1,761.2,333.6z"/>
			</g>
			<g id="XMLID_1129_" class="st11">
				<path id="XMLID_1464_" d="M761.2,333.6c-34-18.6-58-31.9-72.4,13.8c-14.2,45-20.4,98-40.9,110.5c0,0,13.4,4.4,61,27.8
					c19.6,9.6,32.4,19.3,50.7,30.8c26.9,16.9,24.9,29.5,24.9,29.5c13.4-11.1,20.6-108.4,17.3-147.3
					C798.5,359.7,782.1,345.1,761.2,333.6z"/>
			</g>
		</g>
	</g>
</g>
<g id="Character">
	<g id="Boy">
		<g id="XMLID_4622_">
			<path id="XMLID_4624_" class="st12" d="M307.6,208.1c18.6,0.9,30.7,4.2,40.4,15.6c9.5,11.2,58.8,81.2,58.8,81.2
				s-8.6,24.2-27.5,22.1l-37-44.8L307.6,208.1z"/>
			<path class="st13" d="M309.1,207.7c0,0,19.8,0.3,28.9,6.7c9.1,6.3,10.6,7.7,23.9,26.2c13.3,18.5,25.3,35.1,25.3,35.1
				s-9.4,17.6-32.2,24.5l-39.2-47.3L309.1,207.7z"/>
		</g>
		<g id="Botom">
			<g id="XMLID_2222_">
				<g id="XMLID_2224_">
					<polygon id="XMLID_1117_" class="st12" points="213.4,763.9 244.3,763.9 243.7,716.5 213.4,721.3 					"/>
					<polygon id="XMLID_1988_" class="st12" points="318,732.1 347.4,733.1 346.2,682.7 313.8,680.8 					"/>
					<g>
						<path id="XMLID_1987_" class="st14" d="M276.8,813.7c0.9,0.8,0.6,6.6-0.4,8.1c-1.1,1.7-11.3,6.8-22.3,7.6
							c-10.5,0.8-19.8-0.7-26-4.6c-6.2-3.9-9.1-8.2-9.7-14.2c-0.6-6,0.1-11.7-2.8-16.3c-2.6-4.2-6.8-9-7.7-11.3
							c-2-5-0.1-12.2-0.1-12.2L276.8,813.7z"/>
						<path id="XMLID_1986_" class="st8" d="M248.1,761.6c0.1,2.3,0.5,4.4,1.2,6.6c1.5,4.6,3.8,9,6.4,13.1c1.3,2.1,2.7,4.2,4.4,6.2
							c3.2,3.8,7.1,6.9,10.5,10.5c3.4,3.6,6.2,8,6.5,12.9c0.4,8.2-12.7,11-19.5,12.2c-7.3,1.3-15.2,0.9-22.3-1.1
							c-8-2.3-13.7-8.4-15-16.4c-0.4-2.3-0.2-4.6-0.5-6.9c-0.6-5.2-3.3-10-6.4-14.4c-1.8-2.5-3.7-5-4.9-7.8
							c-2.1-5.1-0.4-10.8,0.9-15.9c1.2-4.4,2.5-9.3,4.1-8.9c0,2.3,0,2.5,1.6,4c2.1,1.9,2.1,4.9,4.3,6.6c-1-2.7-1.1-3.8-1.5-5.8
							c-0.1-0.6,0-1.9,0.5-2.3c0.6-0.6,1.6-1,2.5-1.3c3.2-1.1,6.6-1.9,10-2.3c3.1-0.4,10.8-0.8,13.9-0.1c0.9,0.2,1.9,0.7,2.4,1.4
							c0.6,0.8,0.7,1.5,0.9,2.8C248.1,756,248,759.4,248.1,761.6z"/>
						<path id="XMLID_1984_" class="st15" d="M256.8,783.1c-3.1-2.3-14.1-2.3-17.8-1.9c-4.7,0.5-8.5,2.1-10.7,3.7
							c-1,0.7-2.3,0.6-3.1-0.2l0,0c-1-1-0.9-2.6,0.2-3.5c2.3-1.7,6.4-4.1,12-4.4c9.2-0.6,16.1,0.9,16.1,0.9S257.7,780.3,256.8,783.1
							z"/>
						<path id="XMLID_1983_" class="st15" d="M263.9,791.5c-3.8-2.3-15.6-1.9-19.3-1.5c-4.7,0.5-8.2,2.4-10.4,3.9
							c-1,0.7-2.3,0.6-3.1-0.2l0,0c-1-1-0.9-2.6,0.2-3.5c2.3-1.7,10.9-4.4,16.4-4.8c9.2-0.6,11.6,1.2,11.6,1.2
							S263.2,788.1,263.9,791.5z"/>
						<path id="XMLID_1982_" class="st15" d="M233.7,767.9c6.4-0.7,13.3,0.1,15.8,1c1.6,0.9,2.7,3.5,1.7,4.1
							c-2.1-1.1-9.9-1.6-14.5-1.4c-3,0.1-6.9,1.4-10,2.7c-0.8,0.3-1.7,0.8-2.5,1.3c-1.1,0.6-2.5,0.2-3-0.9l0,0
							c-0.4-1-0.1-2.1,0.8-2.6C224.2,770.7,228.6,768.4,233.7,767.9z"/>
					</g>
					<g>
						<path id="XMLID_1981_" class="st14" d="M404.9,766.3c0.9,1.8,0.6,5.2-0.4,7.3c-1,2.1-12.2,8.4-27.3,7.4
							c-15.1-1-25.4-7.1-31.2-10.9c-5.7-3.8-11.7-4.5-19.2-4.9c-7.5-0.4-17.3-4.2-18.9-7.6c-1.6-3.5,0.2-9.5,0.2-9.5L404.9,766.3z"
							/>
						<path id="XMLID_1980_" class="st8" d="M344.1,719.2c0.4-0.1,0.8-0.2,1.2-0.2c0.7-0.1,1.3-0.3,2-0.1c0.7,0.2,1.3,0.7,1.9,1.3
							c1.6,1.8,2.6,4,3.9,6c3.2,5.2,9.8,9.4,17,13.3c4.9,2.6,9.8,4.7,14.8,7c5.2,2.3,12.1,3.8,16.1,6.5c5.9,4,6.7,14-0.1,18
							c-5.8,3.4-21.1,7.1-37.2,2.6c-8.7-2.5-18.4-11.8-29.9-12.7c-7.3-0.6-21.1-2.6-25.8-8.2c-1.7-2.5,0.6-10.2,2.5-17
							c2.1-7.3,4.1-18.8,6.5-18.2c0.1,1.4,0.3,1.8,1.3,2.7c0.9,0.9,2.1,1.5,3.1,2.4c1.8,1.5,2.9,3.7,4,5.8c0.5,0.9,1.1,1.9,2.1,2.2
							c1.2,0.5,2.1-0.3,3.2-0.8c1.4-0.6,2.9-0.7,4.4-0.3c-0.1-1.5-0.4-2.9-0.8-4.3c-0.1-0.5-0.3-0.9-0.1-1.4
							c0.1-0.5,0.5-0.8,0.9-1.1C337.9,720.8,340.8,719.9,344.1,719.2z"/>
						<path id="XMLID_1968_" class="st15" d="M363.2,735.5c0,0-1-2.8-5.4-3.6c-3.3-0.6-9.2,1.8-12.8,4.8c-1.5,1.2-1.3,3.6,0.4,4.5
							l0,0c1,0.6,2.2,0.4,3.1-0.3C350.9,738.8,356.2,735,363.2,735.5z"/>
						<path id="XMLID_1965_" class="st15" d="M373.5,741.3c0,0-2.1-3.4-6.4-3.3c0,0-8.7,0.2-14,5.3c-1.4,1.3-1.3,3.4,0.4,4.3v0
							c1,0.5,2.2,0.4,3-0.3C358.8,745.1,363.7,740.5,373.5,741.3z"/>
						<path id="XMLID_1911_" class="st15" d="M384.8,746.5c0,0-2.4-3-6.6-3c0,0-8.1,0.3-13.4,5.3c-1.4,1.3-1.3,3.4,0.4,4.3l0,0
							c1,0.5,2.2,0.4,3-0.3C370.5,750.6,375,745.7,384.8,746.5z"/>
					</g>
					<path id="XMLID_1116_" class="st2" d="M218,385.7c-1.9,57.6-2,175.3-2,175.3c-0.6,7.2-1.2,19.9-1.8,45.7
						c-0.8,37.4-0.9,133.5-0.9,133.5s16.2,4.6,32.5-2.2c0,0,22.8-129.8,27.5-166.8c4.1-32.3,11-120.1,11-120.1l14.1,105.5
						c0,0-2.5,27.5-1,49.6c1.2,17.1,18.6,105.2,18.6,105.2s13,6,30.8,0c0,0,0.3-139.1,0.6-154.8c0.3-17.9-1.6-201.7-1.6-201.7
						L218,385.7z"/>
					<path id="XMLID_1124_" class="st9" d="M218,385.7c-1.9,57.6-2,175.3-2,175.3c-0.6,7.2-1.2,19.9-1.8,45.7
						c-0.8,37.4-0.9,133.5-0.9,133.5s16.2,4.6,32.5-2.2c0,0,22.8-129.8,27.5-166.8c4.1-32.3,11-120.1,11-120.1l14.1,105.5
						c0,0-2.5,27.5-1,49.6c1.2,17.1,18.6,105.2,18.6,105.2s13,6,30.8,0c0,0,0.3-139.1,0.6-154.8c0.3-17.9-1.6-201.7-1.6-201.7
						L218,385.7z"/>
					<path id="XMLID_2225_" class="st5" d="M284.4,451.1c0,0,20.8-5.9,36.3-20.8c0,0-7,13.1-27.8,25.3l4.5,92L284.4,451.1z"/>
				</g>
			</g>
		</g>
		<g id="Chest">
			<path id="XMLID_2139_" class="st8" d="M269.2,205.6c-11.7,1.1-28,1.3-39.6,2.4c-8,3.3-23.5,16.8-22.3,26.4
				c4.3,35.9,11.8,95.1,11.8,95.1l-2.3,61.8c16,16,91.8,22.2,130.5-3.4c0,0-1.3-111.9-3.9-130.8c-4.8-33.9-9-46.5-26.5-49.5
				C299.4,204.7,269.2,205.6,269.2,205.6z"/>
			<g id="XMLID_2122_">
				<g id="XMLID_2130_">
					
						<ellipse id="XMLID_2138_" transform="matrix(0.3598 -0.933 0.933 0.3598 80.1751 360.0172)" class="st14" cx="302.4" cy="121.6" rx="36.2" ry="36.2"/>
					<path id="XMLID_2136_" class="st14" d="M239.7,146.7c0,0,5.6,27.6,7.9,32.1c2.3,4.5,7.2,5.9,7.2,5.9l-0.2-19.4L239.7,146.7z"/>
					<path id="XMLID_2135_" class="st14" d="M247.4,107.4c0,0-6.3-1.1-11.3,3.8c-4.9,4.9-2.3,20.3,3.6,35.5l11,1.4L247.4,107.4z"/>
					<path id="XMLID_2134_" class="st12" d="M254,148.1c-2.2,1.3-5.3-3-8-5.9c-2.7-2.9-11.6-6.9-16.1,2.5
						c-4.6,9.5,3.7,22.2,10.7,24.4c12.1,3.9,13.9-3.8,13.9-3.8l0.5,44.9l0,0c14.9,19.4,56.6,18.1,39.4-2.1l0.1-13.3
						c0,0,10.9,1.8,16.3,1c8.9-1.3,14.6-8.3,17.3-17.9c4.5-15.4,6.2-27.9,2.8-58.3c-3.7-33.3-42.5-34-63.5-21
						C246.4,111.7,254,148.1,254,148.1z"/>
					<path id="XMLID_2133_" class="st14" d="M254,151.9c-1.1,0-5.3-7-8-9.6c-3.8-3.5,1.4-34.9,1.4-34.9s-4.6-8.9,2.8-17
						c5.3-5.7,12.6-12.7,36.3-9.7c16.9,2.1,35.3,7.6,50.2,0.4c2.1,9.3,0.3,19.6-9.1,26.8c0,0-5.4,3.4-19.6,5
						c-14.2,1.6-36.2-0.6-39.2-1.1c-4.1-0.6-5,3.4-7.3,14.2C259.5,135.7,257.7,151.8,254,151.9z"/>
					<path id="XMLID_2132_" class="st14" d="M247.4,109.8l-13.3-7.3c1.9-3.8,6.5-5.3,10.2-3.3C247.9,101.3,249.3,106,247.4,109.8z"
						/>
					<path id="XMLID_1115_" class="st16" d="M294.5,194.9c0,0-19.8-4.2-26.7-7.9c-4.6-2.5-8.4-6.8-9.5-9.6c0,0,1.2,5.9,5.3,11.2
						c5,6.5,30.8,11.5,30.8,11.5L294.5,194.9z"/>
				</g>
				<g id="XMLID_2123_">
					<path id="XMLID_2129_" class="st14" d="M298,146.8c0,2.3-1.8,4.1-4,4.1c-2.2,0-4-1.9-3.9-4.2c0-2.3,1.8-4.1,4-4.1
						C296.2,142.6,298,144.5,298,146.8z"/>
					<path id="XMLID_1114_" class="st14" d="M295.6,128.3l-8.3,5.1c-1.4-2.4-0.6-5.5,1.7-6.9C291.3,125.1,294.2,125.9,295.6,128.3z"
						/>
					<path id="XMLID_2126_" class="st14" d="M329.7,137.8l-7.5-6.3c1.7-2.2,4.7-2.5,6.8-0.8C331.1,132.5,331.4,135.7,329.7,137.8z"
						/>
					<path id="XMLID_2125_" class="st14" d="M326.5,146.8c0,2.2-1.7,3.9-3.8,3.9c-2.1,0-3.8-1.8-3.8-4c0-2.2,1.7-3.9,3.8-3.9
						C324.8,142.8,326.5,144.6,326.5,146.8z"/>
					<polygon id="XMLID_1113_" class="st16" points="308.3,141.6 306.8,165.5 319.7,162.8 					"/>
					<path class="st16" d="M299.4,176c0,2.1-1.7,3.8-3.8,3.8s-3.8-1.7-3.8-3.8c0-2.1,1.7-3.8,3.8-3.8S299.4,173.9,299.4,176z"/>
				</g>
			</g>
		</g>
		<g>
			<path class="st12" d="M182.9,163.5c8.9-9.6,15-16.8,23.1-25c4.6-4.6,7.5-8,12-12.7c3-3.3,4.9-6.1,8-6.9c3.5-0.9,6.9-3,9.3-5
				c1.7-1.4,3.1-3.2,4.7-4.8c5.1-5.5,11-10.3,17.4-14.1c6.8-4,14.1-6.9,21-10.7c4.1-2.3,8.7-6.3,4.5-10.9c-1.3-1.4-3.1-2.4-4.9-3
				c-11.2-3.6-21.6-0.7-33.1,1c-4.7,0.7-9.4,1.7-14,3.2c-2.3,0.7-4.6,1.5-6.6,2.9c-3.1,2.1-5.2,5.4-7.4,8.5
				c-5.9,8.2-15.9,16-23.9,22c-9.4,7.1-18.5,14.7-28.1,21.4c-9.7,6.8-19.3,13.9-28.2,21.8c-7.4,6.5-6.6,10.8-5.9,12.8
				c4.2,11.7,9.8,16.3,16.3,24c13.6,16,72.4,76.1,72.4,76.1l9.2-16.9c9.6-17.6,5.6-39.5-9.5-52.7C206.6,183.6,193.3,172,182.9,163.5
				z"/>
			<path id="XMLID_1119_" class="st13" d="M236.4,206.9c-16.8-13-46.3-38.2-46.3-38.2s-1.2,29.6-22.6,44.1c0,0,39.1,41.9,49.4,51.9
				c9.6-2.2,17.7-9.8,20.5-24.6C242.1,215.1,236.4,206.9,236.4,206.9z"/>
			<path class="st16" d="M182.9,163.5c0,0-8.4,9.1-21.4,11.6c0,0,9.7,2.9,25.3-8.4L182.9,163.5z"/>
		</g>
	</g>
	<g id="Lista">
		<g id="Paper">
			<path class="st0" d="M433.6,791.8c-4.1-2.4-7.7-2.8-10.4-1.3c-2.9,1.7-4.6,5.9-4.6,11.6v40.9c0,12.1-4.3,21.4-12.1,26l46.2-26.6
				v-15.8C452.8,813.7,444,797.8,433.6,791.8z"/>
			<path class="st0" d="M505.8,872.7c-3-1.7-5.6-2.1-7.4-1c-2.1,1.2-3.3,4.3-3.3,8.5V907c0,7.3-2.7,13.1-7.5,15.8l33.1-19.1v-3.9
				C520.8,889.8,513.9,877.4,505.8,872.7z"/>
			<path class="st3" d="M433.6,791.8c-4.1-2.4-7.7-2.8-10.4-1.3c-2.9,1.7-4.6,5.9-4.6,11.6v40.9c0,12.1-4.3,21.4-12.1,26l46.2-26.6
				v-15.8C452.8,813.7,444,797.8,433.6,791.8z"/>
			<path class="st3" d="M505.8,872.7c-3-1.7-5.6-2.1-7.4-1c-2.1,1.2-3.3,4.3-3.3,8.5V907c0,7.3-2.7,13.1-7.5,15.8l33.1-19.1v-3.9
				C520.8,889.8,513.9,877.4,505.8,872.7z"/>
			<path class="st0" d="M669.4,866.7l-27.8,16l-3.6,2.1L563.1,928v19.6c0,6.7-2.4,11.8-6.8,14.5l110.2-63.5
				c4.6-2.6,7.1-7.8,7.1-14.6v-19.6L669.4,866.7z"/>
			<polygon class="st7" points="669.4,864.3 640.5,880.9 636.9,883 558.9,928 563.1,928 638,884.8 641.6,882.7 669.4,866.7 
				673.6,864.3 			"/>
			<path class="st0" d="M312.5,383.5v43.2c0,8.7-5.7,12.4-12.8,8.3c-7-4.1-12.7-14-12.7-22.1v-14.7L312.5,383.5z"/>
			<path class="st17" d="M323.2,345.4c-1.9-1.1-3.5-1.4-4.5-0.8c-1.2,0.7-1.9,2.8-1.9,5.5v31v45.6c0,5.7-2.1,10.2-5.8,12.6
				l22.9-13.2v-54.8v-2.4v-4C333.8,357.7,329,348.7,323.2,345.4z"/>
			<polygon class="st7" points="312.5,381.1 312.5,383.5 287,398.2 282.9,398.2 			"/>
			<path class="st7" d="M635.4,863v-26.8c0-11.5-7.6-25.3-17-30.7c-4.4-2.5-8.4-2.8-11.4-1.2l-0.6,0.4L567.6,827l-3.9,2.2
				l-66.9,38.6c3-1.5,6.9-1.2,11.1,1.3c9.4,5.4,17,19.2,17,30.7v1.5v25.3c0,11.6,7.6,25.3,17,30.7c9.4,5.4,17,1,17-9.8
				c0-10.8,0-19.6,0-19.6l78-45l3.6-2.1C637.4,875.3,635.4,868.8,635.4,863z"/>
			<path class="st15" d="M567.4,823.7v-60.8c0-14.5-9.5-31.6-21.2-38.4c-5.5-3.1-10.4-3.5-14.2-1.5l-1,0.6l-73.9,42.6l-3.6,2.1
				l-31.8,18.3c3.7-1.9,8.6-1.5,14,1.6c11.7,6.8,21.2,24,21.2,38.4v13.3v47.5c0,11.6,7.6,25.3,17,30.7c9.4,5.4,17,0.5,17-11.1v-26.8
				c0-6.1,2.2-10.4,5.6-12.3l0.3-0.1l66.9-38.6l3.9-2.2C567.5,825.9,567.4,824.8,567.4,823.7z"/>
			<path class="st7" d="M448.5,734.1v-433c0-8.7-5.7-19-12.7-23c-3.3-1.9-6.3-2.1-8.5-0.9l-0.5,0.3l-109.8,63.3
				c2.2-1.1,5.2-0.9,8.4,1c7,4.1,12.7,14.4,12.7,23v1.5v2.4v54.8v374.2c0,23.1,16.2,51.2,36.2,62.7l4,2.3c20,11.5,36.2,2.6,36.2-20
				c0-22.6,0-40.9,0-40.9c0-7.4,2.5-12.6,6.5-15l0.8-0.5l31.8-18.3l3.6-2.1C451.7,755.8,448.5,744.4,448.5,734.1z"/>
			<path class="st8" d="M563.1,928v19.6c0,6.7-2.4,11.8-6.8,14.5l-0.5,0.3c-1.9,1-4,1.6-6.3,1.6c-3.1,0-6.3-1-9.7-2.9
				c-10.7-6.2-19.1-21.3-19.1-34.4v-26.8c0-10-6.8-22.4-14.9-27.1c-3-1.7-5.6-2.1-7.4-1c-2.1,1.2-3.3,4.3-3.3,8.5V907
				c0,7.3-2.7,13.1-7.5,15.8c-4.5,2.6-10.1,2.2-15.8-1.1c-10.7-6.2-19.1-21.3-19.1-34.3v-60.8c0-12.9-8.8-28.8-19.1-34.8
				c-4.1-2.4-7.7-2.8-10.4-1.3c-2.9,1.7-4.6,5.9-4.6,11.6v40.9c0,12.1-4.3,21.4-12.1,26l-0.6,0.4l0,0c-8.2,4.5-18.7,3.5-29.7-2.8
				l-4-2.3c-21.1-12.2-38.3-42-38.3-66.4v-433c0-7.2-4.9-16.1-10.6-19.4c-1.9-1.1-3.5-1.4-4.5-0.8c-1.2,0.7-1.9,2.8-1.9,5.5v76.6
				c0,5.7-2.1,10.2-5.8,12.6l-0.6,0.4c-3.7,1.9-8.1,1.6-12.6-1c-8.3-4.8-14.8-16.1-14.8-25.7v-14.7h4.2v14.7c0,8.1,5.7,18,12.7,22.1
				c7,4.1,12.8,0.3,12.8-8.3v-76.6c0-4.5,1.5-7.6,3.9-9.1l0.4-0.2c2.2-1.1,5.2-0.9,8.4,1c7,4.1,12.7,14.4,12.7,23v433
				c0,23.1,16.2,51.2,36.2,62.7l4,2.3c20,11.5,36.2,2.6,36.2-20c0-22.6,0-40.9,0-40.9c0-7.4,2.5-12.6,6.5-15l0.8-0.5
				c3.7-1.9,8.6-1.5,14,1.6c11.7,6.8,21.2,24,21.2,38.4v60.8c0,11.6,7.6,25.3,17,30.7c9.4,5.4,17,0.5,17-11.1v-26.8
				c0-6.1,2.2-10.4,5.6-12.3l0.3-0.1c3-1.5,6.9-1.2,11.1,1.3c9.4,5.4,17,19.2,17,30.7v26.8c0,11.6,7.6,25.3,17,30.7
				c9.4,5.4,17,1,17-9.8c0-10.8,0-19.6,0-19.6H563.1z"/>
			<path class="st18" d="M452.8,842.4v-15.8c0-12.9-8.8-28.8-19.1-34.8c-4.1-2.4-7.7-2.8-10.4-1.3c-2.9,1.7-4.6,5.9-4.6,11.6v3.3
				c0-11.2,19.4-10.8,19.4,20.5c0,9.1,0,17.5,0,25L452.8,842.4z"/>
			<path class="st18" d="M520.8,903.8v-3.9c0-10-6.8-22.4-14.9-27.1c-3-1.7-5.6-2.1-7.4-1c-2.1,1.2-3.3,4.3-3.3,8.5v13.4
				c0-13.4,14.6-6.1,14.6,3.9c0,3.3,0,7.9,0,12.6L520.8,903.8z"/>
			<path class="st19" d="M333.8,426v-54.8v-2.4v-4c0-7.2-4.9-16.1-10.6-19.4c-1.9-1.1-3.5-1.4-4.5-0.8c-1.2,0.7-1.9,2.8-1.9,5.5
				v13.7c0-9.3,10.2-6,10.2,11.3c0,11,0,37.2,0,54.8L333.8,426z"/>
		</g>
		<g id="Text">
			<g>
				<path class="st2" d="M625.4,837.2c-1.6,0.9-2.9,3.2-2.9,5c0,1.9,1.3,2.6,2.9,1.7c1.6-0.9,2.9-3.2,2.9-5
					C628.3,837.1,627,836.3,625.4,837.2z"/>
				<path class="st2" d="M625.4,870.7c-1.6,0.9-2.9,3.2-2.9,5c0,1.9,1.3,2.6,2.9,1.7c1.6-0.9,2.9-3.2,2.9-5
					C628.3,870.5,627,869.7,625.4,870.7z"/>
				<path id="XMLID_1121_" class="st2" d="M606.7,812.6c1.4,1.2,4,1.6,5.7,1c1.7-0.6,2-2.1,0.6-3.3c-1.4-1.2-4-1.6-5.7-1
					C605.6,809.9,605.3,811.4,606.7,812.6z"/>
			</g>
			<g class="st9">
				<g>
					<path class="st8" d="M516.4,865.2c-0.4,0-0.7-0.2-0.9-0.5c-0.3-0.5-0.1-1.1,0.4-1.4l82-47.3c0.5-0.3,1.1-0.1,1.4,0.4
						c0.3,0.5,0.1,1.1-0.4,1.4l-82,47.3C516.8,865.2,516.6,865.2,516.4,865.2z"/>
				</g>
				<g>
					<path class="st8" d="M527.6,876.9c-0.4,0-0.7-0.2-0.9-0.5c-0.3-0.5-0.1-1.1,0.4-1.4l82-47.3c0.5-0.3,1.1-0.1,1.4,0.4
						c0.3,0.5,0.1,1.1-0.4,1.4l-82,47.3C528,876.8,527.8,876.9,527.6,876.9z"/>
				</g>
				<g>
					<path class="st8" d="M533.3,892.9c-0.4,0-0.7-0.2-0.9-0.5c-0.3-0.5-0.1-1.1,0.4-1.4l82-47.3c0.5-0.3,1.1-0.1,1.4,0.4
						c0.3,0.5,0.1,1.1-0.4,1.4l-82,47.3C533.6,892.8,533.4,892.9,533.3,892.9z"/>
				</g>
				<g>
					<path class="st8" d="M533.4,909.4c-0.4,0-0.7-0.2-0.9-0.5c-0.3-0.5-0.1-1.1,0.4-1.4l82-47.3c0.5-0.3,1.1-0.1,1.4,0.4
						c0.3,0.5,0.1,1.1-0.4,1.4l-82,47.3C533.8,909.4,533.6,909.4,533.4,909.4z"/>
				</g>
				<g>
					<path class="st8" d="M533.6,925.9c-0.4,0-0.7-0.2-0.9-0.5c-0.3-0.5-0.1-1.1,0.4-1.4l82-47.3c0.5-0.3,1.1-0.1,1.4,0.4
						c0.3,0.5,0.1,1.1-0.4,1.4l-82,47.3C534,925.9,533.8,925.9,533.6,925.9z"/>
				</g>
				<g>
					<path class="st8" d="M558.9,928.3v2.4l-19.1,11c-0.2,0.1-0.4,0.1-0.5,0.1c-0.4,0-0.7-0.2-0.9-0.5c-0.3-0.5-0.1-1.2,0.4-1.4
						L558.9,928.3z"/>
				</g>
				<g>
					<path class="st8" d="M558.9,946.4v1.2c0,0.4,0,0.8,0,1.2l-7.9,4.6c-0.2,0.1-0.3,0.1-0.5,0.1c-0.4,0-0.7-0.2-0.9-0.5
						c-0.3-0.5-0.1-1.1,0.4-1.4L558.9,946.4z"/>
				</g>
			</g>
			<g>
				<path class="st2" d="M557.3,755.7c-1.6,0.9-2.9,3.2-2.9,5c0,1.9,1.3,2.6,2.9,1.7c1.6-0.9,2.9-3.2,2.9-5
					C560.2,755.5,558.9,754.8,557.3,755.7z"/>
				<path class="st2" d="M557.3,792.2c-1.6,0.9-2.9,3.2-2.9,5c0,1.9,1.3,2.6,2.9,1.7c1.6-0.9,2.9-3.2,2.9-5
					C560.2,792,558.9,791.2,557.3,792.2z"/>
				<path class="st2" d="M560.2,830.3c0,0.3,0,0.6-0.1,0.9l-5.6,3.2c-0.1-0.2-0.1-0.5-0.1-0.8c0-1.9,1.3-4.1,2.9-5
					C558.9,827.7,560.2,828.5,560.2,830.3z"/>
				<path id="XMLID_1120_" class="st2" d="M534.8,730.4c1.4,1.2,4,1.6,5.7,1s2-2.1,0.6-3.3c-1.4-1.2-4-1.6-5.7-1
					C533.6,727.7,533.3,729.2,534.8,730.4z"/>
			</g>
			<g class="st20">
				<g>
					<path class="st8" d="M444.2,784.1c-0.4,0-0.7-0.2-0.9-0.5c-0.3-0.5-0.1-1.1,0.4-1.4l83.1-47.9c0.5-0.3,1.1-0.1,1.4,0.4
						c0.3,0.5,0.1,1.1-0.4,1.4l-83.1,47.9C444.6,784,444.4,784.1,444.2,784.1z"/>
				</g>
				<g>
					<path class="st8" d="M456.5,796c-0.4,0-0.7-0.2-0.9-0.5c-0.3-0.5-0.1-1.1,0.4-1.4l83.1-47.9c0.5-0.3,1.1-0.1,1.4,0.4
						c0.3,0.5,0.1,1.1-0.4,1.4l-83.1,47.9C456.9,796,456.7,796,456.5,796z"/>
				</g>
				<g>
					<path class="st8" d="M464.2,812.8c-0.4,0-0.7-0.2-0.9-0.5c-0.3-0.5-0.1-1.1,0.4-1.4l83.1-47.9c0.5-0.3,1.1-0.1,1.4,0.4
						c0.3,0.5,0.1,1.1-0.4,1.4l-83.1,47.9C464.5,812.8,464.4,812.8,464.2,812.8z"/>
				</g>
				<g>
					<path class="st8" d="M465.4,830.5c-0.4,0-0.7-0.2-0.9-0.5c-0.3-0.5-0.1-1.1,0.4-1.4l83.1-47.9c0.5-0.3,1.1-0.1,1.4,0.4
						c0.3,0.5,0.1,1.1-0.4,1.4L466,830.3C465.8,830.4,465.6,830.5,465.4,830.5z"/>
				</g>
				<g>
					<path class="st8" d="M465.4,848.3c-0.4,0-0.7-0.2-0.9-0.5c-0.3-0.5-0.1-1.1,0.4-1.4l83.1-47.9c0.5-0.3,1.1-0.1,1.4,0.4
						c0.3,0.5,0.1,1.1-0.4,1.4L466,848.2C465.8,848.3,465.6,848.3,465.4,848.3z"/>
				</g>
				<g>
					<path class="st8" d="M465.4,866.2c-0.4,0-0.7-0.2-0.9-0.5c-0.3-0.5-0.1-1.1,0.4-1.4l83.1-47.9c0.5-0.3,1.1-0.1,1.4,0.4
						c0.3,0.5,0.1,1.1-0.4,1.4L466,866.1C465.8,866.2,465.6,866.2,465.4,866.2z"/>
				</g>
				<g>
					<path class="st8" d="M465.5,884.1c-0.4,0-0.7-0.2-0.9-0.5c-0.3-0.5-0.1-1.1,0.4-1.4l83.1-47.9c0.5-0.3,1.1-0.1,1.4,0.4
						c0.3,0.5,0.1,1.1-0.4,1.4L466,883.9C465.8,884,465.6,884.1,465.5,884.1z"/>
				</g>
				<g>
					<path class="st8" d="M490.9,887.4v2.4l-19.8,11.4c-0.2,0.1-0.3,0.1-0.5,0.1c-0.4,0-0.7-0.2-0.9-0.5c-0.3-0.5-0.1-1.2,0.4-1.4
						L490.9,887.4z"/>
				</g>
				<g>
					<path class="st8" d="M490.9,906.9v0.1c0,0.8,0,1.6-0.1,2.3l-7.8,4.5c-0.2,0.1-0.4,0.1-0.5,0.1c-0.4,0-0.7-0.2-0.9-0.5
						c-0.3-0.5-0.1-1.1,0.4-1.4L490.9,906.9z"/>
				</g>
			</g>
			<g>
				<path id="XMLID_1126_" class="st2" d="M441,316.3c-1.6,0.9-2.9,3.2-2.9,5c0,1.9,1.3,2.6,2.9,1.7c1.6-0.9,2.9-3.2,2.9-5
					C443.9,316.2,442.6,315.4,441,316.3z"/>
				<path id="XMLID_1118_" class="st2" d="M428.3,286.5c1.4,1.2,4,1.6,5.7,1c1.7-0.6,2-2.1,0.6-3.3c-1.4-1.2-4-1.6-5.7-1
					C427.2,283.9,426.9,285.3,428.3,286.5z"/>
				<path class="st2" d="M441,368.2c-1.6,0.9-2.9,3.2-2.9,5c0,1.9,1.3,2.6,2.9,1.7c1.6-0.9,2.9-3.2,2.9-5
					C443.9,368.1,442.6,367.3,441,368.2z"/>
				<path class="st2" d="M441,402.8c-1.6,0.9-2.9,3.2-2.9,5c0,1.9,1.3,2.6,2.9,1.7c1.6-0.9,2.9-3.2,2.9-5
					C443.9,402.7,442.6,401.9,441,402.8z"/>
				<path class="st2" d="M441,437.4c-1.6,0.9-2.9,3.2-2.9,5c0,1.9,1.3,2.6,2.9,1.7c1.6-0.9,2.9-3.2,2.9-5
					C443.9,437.3,442.6,436.5,441,437.4z"/>
				<path class="st2" d="M441,472c-1.6,0.9-2.9,3.2-2.9,5c0,1.9,1.3,2.6,2.9,1.7c1.6-0.9,2.9-3.2,2.9-5
					C443.9,471.9,442.6,471.1,441,472z"/>
				<path class="st2" d="M441,506.6c-1.6,0.9-2.9,3.2-2.9,5c0,1.9,1.3,2.6,2.9,1.7c1.6-0.9,2.9-3.2,2.9-5
					C443.9,506.5,442.6,505.7,441,506.6z"/>
				<path class="st2" d="M441,541.2c-1.6,0.9-2.9,3.2-2.9,5c0,1.9,1.3,2.6,2.9,1.7c1.6-0.9,2.9-3.2,2.9-5
					C443.9,541.1,442.6,540.3,441,541.2z"/>
				<path class="st2" d="M441,575.8c-1.6,0.9-2.9,3.2-2.9,5c0,1.9,1.3,2.6,2.9,1.7c1.6-0.9,2.9-3.2,2.9-5
					C443.9,575.7,442.6,574.9,441,575.8z"/>
				<path class="st2" d="M441,610.4c-1.6,0.9-2.9,3.2-2.9,5c0,1.9,1.3,2.6,2.9,1.7c1.6-0.9,2.9-3.2,2.9-5
					C443.9,610.3,442.6,609.5,441,610.4z"/>
				<path class="st2" d="M441,645c-1.6,0.9-2.9,3.2-2.9,5c0,1.9,1.3,2.6,2.9,1.7c1.6-0.9,2.9-3.2,2.9-5
					C443.9,644.9,442.6,644.1,441,645z"/>
				<path class="st2" d="M441,679.6c-1.6,0.9-2.9,3.2-2.9,5c0,1.9,1.3,2.6,2.9,1.7c1.6-0.9,2.9-3.2,2.9-5
					C443.9,679.5,442.6,678.7,441,679.6z"/>
				<path class="st2" d="M441,714.2c-1.6,0.9-2.9,3.2-2.9,5c0,1.9,1.3,2.6,2.9,1.7c1.6-0.9,2.9-3.2,2.9-5
					C443.9,714.1,442.6,713.3,441,714.2z"/>
				<path id="XMLID_1125_" class="st2" d="M441,748.8c-1.6,0.9-2.9,3.2-2.9,5c0,1.9,1.3,2.6,2.9,1.7c1.6-0.9,2.9-3.2,2.9-5
					C443.9,748.7,442.6,747.9,441,748.8z"/>
			</g>
			<g class="st21">
				<g>
					<path class="st8" d="M338.2,340.3c-0.4,0-0.7-0.2-0.9-0.5c-0.3-0.5-0.1-1.1,0.4-1.4l84.8-49c0.5-0.3,1.1-0.1,1.4,0.4
						c0.3,0.5,0.1,1.1-0.4,1.4l-84.8,49C338.5,340.2,338.4,340.3,338.2,340.3z"/>
				</g>
				<g>
					<path class="st8" d="M345.9,355.2c-0.4,0-0.7-0.2-0.9-0.5c-0.3-0.5-0.1-1.1,0.4-1.4l84.8-49c0.5-0.3,1.1-0.1,1.4,0.4
						c0.3,0.5,0.1,1.1-0.4,1.4l-84.8,49C346.3,355.2,346.1,355.2,345.9,355.2z"/>
				</g>
				<g>
					<path class="st8" d="M348,372.4c-0.4,0-0.7-0.2-0.9-0.5c-0.3-0.5-0.1-1.1,0.4-1.4l84.8-49c0.5-0.3,1.1-0.1,1.4,0.4
						c0.3,0.5,0.1,1.1-0.4,1.4l-84.8,49C348.4,372.3,348.2,372.4,348,372.4z"/>
				</g>
				<g>
					<path class="st8" d="M348,389.7c-0.4,0-0.7-0.2-0.9-0.5c-0.3-0.5-0.1-1.1,0.4-1.4l84.8-49c0.5-0.3,1.1-0.1,1.4,0.4
						c0.3,0.5,0.1,1.1-0.4,1.4l-84.8,49C348.4,389.7,348.2,389.7,348,389.7z"/>
				</g>
				<g>
					<path class="st8" d="M348,407.1c-0.4,0-0.7-0.2-0.9-0.5c-0.3-0.5-0.1-1.1,0.4-1.4l84.8-49c0.5-0.3,1.1-0.1,1.4,0.4
						c0.3,0.5,0.1,1.1-0.4,1.4l-84.8,49C348.4,407,348.2,407.1,348,407.1z"/>
				</g>
				<g>
					<path class="st8" d="M348,424.4c-0.4,0-0.7-0.2-0.9-0.5c-0.3-0.5-0.1-1.1,0.4-1.4l84.8-49c0.5-0.3,1.1-0.1,1.4,0.4
						c0.3,0.5,0.1,1.1-0.4,1.4l-84.8,49C348.4,424.4,348.2,424.4,348,424.4z"/>
				</g>
				<g>
					<path class="st8" d="M348,441.8c-0.4,0-0.7-0.2-0.9-0.5c-0.3-0.5-0.1-1.1,0.4-1.4l84.8-49c0.5-0.3,1.1-0.1,1.4,0.4
						c0.3,0.5,0.1,1.1-0.4,1.4l-84.8,49C348.4,441.7,348.2,441.8,348,441.8z"/>
				</g>
				<g>
					<path class="st8" d="M348,459.2c-0.4,0-0.7-0.2-0.9-0.5c-0.3-0.5-0.1-1.1,0.4-1.4l84.8-49c0.5-0.3,1.1-0.1,1.4,0.4
						c0.3,0.5,0.1,1.1-0.4,1.4l-84.8,49C348.4,459.1,348.2,459.2,348,459.2z"/>
				</g>
				<g>
					<path class="st8" d="M348,476.5c-0.4,0-0.7-0.2-0.9-0.5c-0.3-0.5-0.1-1.1,0.4-1.4l84.8-49c0.5-0.3,1.1-0.1,1.4,0.4
						c0.3,0.5,0.1,1.1-0.4,1.4l-84.8,49C348.4,476.5,348.2,476.5,348,476.5z"/>
				</g>
				<g>
					<path class="st8" d="M348,493.9c-0.4,0-0.7-0.2-0.9-0.5c-0.3-0.5-0.1-1.1,0.4-1.4l84.8-49c0.5-0.3,1.1-0.1,1.4,0.4
						c0.3,0.5,0.1,1.1-0.4,1.4l-84.8,49C348.4,493.8,348.2,493.9,348,493.9z"/>
				</g>
				<g>
					<path class="st8" d="M348,511.2c-0.4,0-0.7-0.2-0.9-0.5c-0.3-0.5-0.1-1.1,0.4-1.4l84.8-49c0.5-0.3,1.1-0.1,1.4,0.4
						c0.3,0.5,0.1,1.1-0.4,1.4l-84.8,49C348.4,511.2,348.2,511.2,348,511.2z"/>
				</g>
				<g>
					<path class="st8" d="M348,528.6c-0.4,0-0.7-0.2-0.9-0.5c-0.3-0.5-0.1-1.1,0.4-1.4l84.8-49c0.5-0.3,1.1-0.1,1.4,0.4
						c0.3,0.5,0.1,1.1-0.4,1.4l-84.8,49C348.4,528.5,348.2,528.6,348,528.6z"/>
				</g>
				<g>
					<path class="st8" d="M348,545.9c-0.4,0-0.7-0.2-0.9-0.5c-0.3-0.5-0.1-1.1,0.4-1.4l84.8-49c0.5-0.3,1.1-0.1,1.4,0.4
						c0.3,0.5,0.1,1.1-0.4,1.4l-84.8,49C348.4,545.9,348.2,545.9,348,545.9z"/>
				</g>
				<g>
					<path class="st8" d="M348,563.3c-0.4,0-0.7-0.2-0.9-0.5c-0.3-0.5-0.1-1.1,0.4-1.4l84.8-49c0.5-0.3,1.1-0.1,1.4,0.4
						c0.3,0.5,0.1,1.1-0.4,1.4l-84.8,49C348.4,563.3,348.2,563.3,348,563.3z"/>
				</g>
				<g>
					<path class="st8" d="M348,580.7c-0.4,0-0.7-0.2-0.9-0.5c-0.3-0.5-0.1-1.1,0.4-1.4l84.8-49c0.5-0.3,1.1-0.1,1.4,0.4
						c0.3,0.5,0.1,1.1-0.4,1.4l-84.8,49C348.4,580.6,348.2,580.7,348,580.7z"/>
				</g>
				<g>
					<path class="st8" d="M348,598c-0.4,0-0.7-0.2-0.9-0.5c-0.3-0.5-0.1-1.1,0.4-1.4l84.8-49c0.5-0.3,1.1-0.1,1.4,0.4
						c0.3,0.5,0.1,1.1-0.4,1.4l-84.8,49C348.4,598,348.2,598,348,598z"/>
				</g>
				<g>
					<path class="st8" d="M348,615.4c-0.4,0-0.7-0.2-0.9-0.5c-0.3-0.5-0.1-1.1,0.4-1.4l84.8-49c0.5-0.3,1.1-0.1,1.4,0.4
						c0.3,0.5,0.1,1.1-0.4,1.4l-84.8,49C348.4,615.3,348.2,615.4,348,615.4z"/>
				</g>
				<g>
					<path class="st8" d="M348,632.7c-0.4,0-0.7-0.2-0.9-0.5c-0.3-0.5-0.1-1.1,0.4-1.4l84.8-49c0.5-0.3,1.1-0.1,1.4,0.4
						c0.3,0.5,0.1,1.1-0.4,1.4l-84.8,49C348.4,632.7,348.2,632.7,348,632.7z"/>
				</g>
				<g>
					<path class="st8" d="M348,650.1c-0.4,0-0.7-0.2-0.9-0.5c-0.3-0.5-0.1-1.1,0.4-1.4l84.8-49c0.5-0.3,1.1-0.1,1.4,0.4
						c0.3,0.5,0.1,1.1-0.4,1.4l-84.8,49C348.4,650,348.2,650.1,348,650.1z"/>
				</g>
				<g>
					<path class="st8" d="M348,667.5c-0.4,0-0.7-0.2-0.9-0.5c-0.3-0.5-0.1-1.1,0.4-1.4l84.8-49c0.5-0.3,1.1-0.1,1.4,0.4
						c0.3,0.5,0.1,1.1-0.4,1.4l-84.8,49C348.4,667.4,348.2,667.5,348,667.5z"/>
				</g>
				<g>
					<path class="st8" d="M348,684.8c-0.4,0-0.7-0.2-0.9-0.5c-0.3-0.5-0.1-1.1,0.4-1.4l84.8-49c0.5-0.3,1.1-0.1,1.4,0.4
						c0.3,0.5,0.1,1.1-0.4,1.4l-84.8,49C348.4,684.8,348.2,684.8,348,684.8z"/>
				</g>
				<g>
					<path class="st8" d="M348,702.2c-0.4,0-0.7-0.2-0.9-0.5c-0.3-0.5-0.1-1.1,0.4-1.4l84.8-49c0.5-0.3,1.1-0.1,1.4,0.4
						c0.3,0.5,0.1,1.1-0.4,1.4l-84.8,49C348.4,702.1,348.2,702.2,348,702.2z"/>
				</g>
				<g>
					<path class="st8" d="M348,719.5c-0.4,0-0.7-0.2-0.9-0.5c-0.3-0.5-0.1-1.1,0.4-1.4l84.8-49c0.5-0.3,1.1-0.1,1.4,0.4
						c0.3,0.5,0.1,1.1-0.4,1.4l-84.8,49C348.4,719.5,348.2,719.5,348,719.5z"/>
				</g>
				<g>
					<path class="st8" d="M348,736.9c-0.4,0-0.7-0.2-0.9-0.5c-0.3-0.5-0.1-1.1,0.4-1.4l84.8-49c0.5-0.3,1.1-0.1,1.4,0.4
						c0.3,0.5,0.1,1.1-0.4,1.4l-84.8,49C348.4,736.8,348.2,736.9,348,736.9z"/>
				</g>
				<g>
					<path class="st8" d="M348,754.2c-0.4,0-0.7-0.2-0.9-0.5c-0.3-0.5-0.1-1.1,0.4-1.4l84.8-49c0.5-0.3,1.1-0.1,1.4,0.4
						c0.3,0.5,0.1,1.1-0.4,1.4l-84.8,49C348.4,754.2,348.2,754.2,348,754.2z"/>
				</g>
				<g>
					<path class="st8" d="M348,771.6c-0.4,0-0.7-0.2-0.9-0.5c-0.3-0.5-0.1-1.1,0.4-1.4l84.8-49c0.5-0.3,1.1-0.1,1.4,0.4
						c0.3,0.5,0.1,1.1-0.4,1.4l-84.8,49C348.4,771.6,348.2,771.6,348,771.6z"/>
				</g>
				<g>
					<path class="st8" d="M348,789c-0.4,0-0.7-0.2-0.9-0.5c-0.3-0.5-0.1-1.1,0.4-1.4l84.8-49c0.5-0.3,1.1-0.1,1.4,0.4
						c0.3,0.5,0.1,1.1-0.4,1.4l-84.8,49C348.4,788.9,348.2,789,348,789z"/>
				</g>
				<g>
					<path class="st8" d="M348.6,805.8c-0.4,0-0.7-0.2-0.9-0.5c-0.3-0.5-0.1-1.1,0.4-1.4l84.8-49c0.5-0.3,1.1-0.1,1.4,0.4
						c0.3,0.5,0.1,1.1-0.4,1.4l-84.8,49C348.9,805.8,348.8,805.8,348.6,805.8z"/>
				</g>
				<g>
					<path class="st8" d="M353.2,822.5c-0.4,0-0.7-0.2-0.9-0.5c-0.3-0.5-0.1-1.1,0.4-1.4l84.8-49c0.5-0.3,1.1-0.1,1.4,0.4
						c0.3,0.5,0.1,1.1-0.4,1.4l-84.8,49C353.5,822.5,353.3,822.5,353.2,822.5z"/>
				</g>
				<g>
					<path class="st8" d="M361.1,836.5l53.4-30.8v2.4l-52.4,30.2c-0.2,0.1-0.4,0.1-0.5,0.1c-0.4,0-0.7-0.2-0.9-0.5
						C360.4,837.5,360.6,836.8,361.1,836.5z"/>
				</g>
				<g>
					<path class="st8" d="M374.9,848.6l39.6-22.8v2.4L376,850.4c-0.2,0.1-0.3,0.1-0.5,0.1c-0.4,0-0.7-0.2-0.9-0.5
						C374.2,849.5,374.4,848.9,374.9,848.6z"/>
				</g>
				<g>
					<path class="st8" d="M392,856.4l22.5-12.9c0,0.8,0,1.7-0.1,2.4L393,858.2c-0.2,0.1-0.3,0.1-0.5,0.1c-0.4,0-0.7-0.2-0.9-0.5
						C391.3,857.3,391.5,856.7,392,856.4z"/>
				</g>
			</g>
			<g class="st21">
				<path class="st8" d="M312.5,396.2v2.4l-17.7,10.2c-0.2,0.1-0.3,0.1-0.5,0.1c-0.4,0-0.7-0.2-0.9-0.5c-0.3-0.5-0.1-1.1,0.4-1.4
					L312.5,396.2z"/>
				<path class="st8" d="M312.5,415.6v2.4l-13.1,7.6c-0.2,0.1-0.3,0.1-0.5,0.1c-0.4,0-0.7-0.2-0.9-0.5c-0.3-0.5-0.1-1.2,0.4-1.4
					L312.5,415.6z"/>
			</g>
		</g>
	</g>
	<g id="Hand">
		<g id="XMLID_3994_">
			<path id="XMLID_3995_" class="st12" d="M448.5,308.7c0,0-1.4,13.1-1.7,16.3c-0.3,3.1-10.3,10.4-17.1,13.6
				c-6.8,3.2-14.3,7-9.1,16.4c4.8,8.7,16.9,8.7,22.9,7.4c6-1.3,13.2-8.5,14.8-18.4c2-12.5-2.4-24.8-2-32
				C456.6,304.9,451.3,304,448.5,308.7z"/>
		</g>
	</g>
</g>
</svg>
