<?xml version="1.0" encoding="utf-8"?>
<!-- Generator: Adobe Illustrator 26.2.1, SVG Export Plug-In . SVG Version: 6.00 Build 0)  -->
<svg version="1.1" id="Layer_1" xmlns="http://www.w3.org/2000/svg" xmlns:xlink="http://www.w3.org/1999/xlink" x="0px" y="0px"
	 viewBox="0 0 888.8 366.3" style="enable-background:new 0 0 888.8 366.3;" xml:space="preserve">
<style type="text/css">
	.st0{fill:#090852;}
</style>
<g>
	<path class="st0" d="M36.7,188.9H20.8V32.3h94.5v14.2H36.7v54.2h73v14.2h-73V188.9z"/>
	<path class="st0" d="M159.7,188.9h-15V21.7h15V188.9z"/>
	<path class="st0" d="M294.3,134.1c0,1,0,2.1,0,3.3c0,1.2-0.1,2.4-0.2,3.8h-85.8c0.1,5.2,1.2,10,3.1,14.6c1.9,4.6,4.6,8.6,8,11.9
		c3.4,3.4,7.4,6.1,11.9,8.1c4.6,2,9.5,3,14.8,3c7.8,0,14.6-1.8,20.2-5.4c5.7-3.6,10-7.8,12.9-12.5l11.3,8.9
		c-6.2,7.8-13,13.4-20.5,16.8c-7.5,3.4-15.5,5.1-24,5.1c-7.7,0-14.8-1.4-21.4-4.1c-6.6-2.7-12.2-6.5-16.9-11.4
		c-4.7-4.9-8.4-10.6-11.2-17.3c-2.7-6.6-4.1-13.9-4.1-21.7c0-7.8,1.3-15,4-21.7c2.7-6.6,6.3-12.4,11.1-17.3
		c4.7-4.9,10.2-8.7,16.6-11.4c6.3-2.7,13.2-4.1,20.6-4.1c8.1,0,15.3,1.4,21.5,4.1c6.2,2.7,11.4,6.4,15.5,11.1
		c4.1,4.6,7.3,10.1,9.4,16.3C293.2,120.4,294.3,127,294.3,134.1z M279,129.2c-0.4-9.7-3.6-17.8-9.4-24.2c-5.8-6.4-14.1-9.6-24.9-9.6
		c-5,0-9.7,0.9-13.9,2.8c-4.3,1.8-8,4.4-11.3,7.5c-3.2,3.2-5.8,6.8-7.7,10.8c-1.9,4.1-3,8.3-3.3,12.7H279z"/>
	<path class="st0" d="M349.6,135.4l-38.3-50h19.2l28.3,39.4l28.3-39.4h18.1l-37.6,49.3l41.2,54.2h-19.5l-30.8-43.1L327,188.9h-18.1
		L349.6,135.4z"/>
	<path class="st0" d="M16.2,362.8V206.1h38.1v156.6H16.2z"/>
	<path class="st0" d="M156.9,362.8v-60.2c0-3.1-0.3-6-0.8-8.9c-0.5-2.8-1.4-5.3-2.5-7.4c-1.2-2.1-2.8-3.8-5-5.1
		c-2.1-1.3-4.8-1.9-8.1-1.9c-3.2,0-6.1,0.6-8.5,1.9c-2.4,1.3-4.5,3-6.1,5.2c-1.6,2.2-2.8,4.8-3.7,7.6c-0.8,2.9-1.2,5.9-1.2,9v59.7
		H84.5V252.6h35.2v15.3h0.4c1.3-2.4,3.1-4.7,5.2-7c2.1-2.3,4.6-4.2,7.5-5.9c2.9-1.6,6-2.9,9.4-4c3.4-1,7-1.5,10.8-1.5
		c7.4,0,13.6,1.3,18.8,4c5.2,2.7,9.3,6.1,12.5,10.3c3.2,4.2,5.5,9,6.9,14.5c1.4,5.5,2.1,10.9,2.1,16.4v68.1H156.9z"/>
	<path class="st0" d="M289,362.8h-39.2l-43.4-110.2h40l23.2,71.5h0.7l23.2-71.5h38.7L289,362.8z"/>
	<path class="st0" d="M463.1,307.2c0,9-1.6,17.1-4.9,24.4c-3.2,7.3-7.7,13.5-13.3,18.6c-5.6,5.1-12.1,9-19.5,11.8
		c-7.4,2.8-15.3,4.2-23.7,4.2c-8.3,0-16.1-1.4-23.6-4.2c-7.4-2.8-13.9-6.7-19.5-11.8s-9.9-11.3-13.2-18.6
		c-3.2-7.3-4.9-15.4-4.9-24.4c0-9,1.6-17.1,4.9-24.3c3.2-7.2,7.6-13.3,13.2-18.4c5.5-5,12-8.9,19.5-11.5c7.4-2.7,15.3-4,23.6-4
		c8.4,0,16.3,1.3,23.7,4c7.4,2.7,13.9,6.5,19.5,11.5c5.6,5,10,11.1,13.3,18.4C461.4,290.1,463.1,298.3,463.1,307.2z M428.1,307.2
		c0-3.5-0.6-7-1.8-10.4c-1.2-3.4-2.9-6.4-5.1-9c-2.2-2.6-4.9-4.7-8.2-6.3c-3.2-1.6-7-2.4-11.3-2.4c-4.3,0-8,0.8-11.3,2.4
		c-3.2,1.6-5.9,3.7-8.1,6.3c-2.1,2.6-3.8,5.6-4.9,9c-1.1,3.4-1.7,6.9-1.7,10.4s0.6,7,1.7,10.4c1.1,3.4,2.8,6.5,5,9.2
		c2.2,2.7,4.9,4.9,8.2,6.5c3.2,1.6,7,2.4,11.3,2.4c4.3,0,8-0.8,11.3-2.4c3.2-1.6,6-3.8,8.2-6.5c2.2-2.7,3.9-5.8,5-9.2
		C427.6,314.3,428.1,310.8,428.1,307.2z"/>
	<path class="st0" d="M525.5,217.4c0,2.8-0.6,5.4-1.7,7.9s-2.6,4.5-4.4,6.3c-1.8,1.8-4.1,3.2-6.6,4.2c-2.6,1-5.3,1.5-8.1,1.5
		c-5.9,0-10.8-2-14.8-5.9c-4-3.9-6-8.6-6-14c0-2.7,0.5-5.2,1.5-7.6c1-2.4,2.5-4.5,4.4-6.3c1.9-1.8,4.1-3.2,6.6-4.3
		c2.5-1.1,5.2-1.7,8.2-1.7c2.8,0,5.5,0.5,8.1,1.5c2.6,1,4.8,2.4,6.6,4.2c1.8,1.8,3.3,3.9,4.4,6.3C524.9,212,525.5,214.6,525.5,217.4
		z M486.5,362.8V252.6h36.3v110.2H486.5z"/>
	<path class="st0" d="M627.7,288.2c-2.1-2.7-4.9-4.8-8.4-6.4c-3.5-1.6-7.2-2.4-10.8-2.4c-3.8,0-7.3,0.8-10.4,2.3s-5.8,3.6-8,6.2
		c-2.2,2.6-3.9,5.6-5.2,9c-1.3,3.4-1.9,7-1.9,10.8c0,3.8,0.6,7.4,1.8,10.8c1.2,3.4,2.9,6.4,5.2,9c2.3,2.6,5,4.6,8.2,6.1
		c3.2,1.5,6.7,2.2,10.7,2.2c3.7,0,7.3-0.7,11-2.1c3.6-1.4,6.5-3.4,8.7-6.1l20.1,24.6c-4.6,4.4-10.5,7.9-17.7,10.4
		c-7.2,2.5-14.9,3.8-23,3.8c-8.7,0-16.8-1.3-24.4-4c-7.5-2.7-14.1-6.5-19.7-11.6c-5.6-5.1-9.9-11.2-13.1-18.5
		c-3.2-7.2-4.8-15.4-4.8-24.6c0-9,1.6-17.1,4.8-24.3c3.2-7.2,7.6-13.4,13.1-18.5c5.6-5.1,12.1-9,19.7-11.7
		c7.5-2.7,15.6-4.1,24.2-4.1c4,0,7.9,0.4,11.8,1.1c3.9,0.7,7.7,1.7,11.3,3c3.6,1.3,6.9,2.8,10,4.6c3,1.8,5.6,3.9,7.9,6.1
		L627.7,288.2z"/>
	<path class="st0" d="M772.2,309c0,1.5,0,3,0,4.4c0,1.5-0.1,2.9-0.2,4.2h-79.9c0.3,3.1,1.2,5.9,2.8,8.4c1.5,2.5,3.5,4.7,6,6.5
		c2.4,1.8,5.2,3.3,8.2,4.3c3,1,6.2,1.5,9.4,1.5c5.8,0,10.6-1.1,14.6-3.2c4-2.1,7.2-4.9,9.7-8.3l25.2,15.9
		c-5.2,7.5-12,13.3-20.5,17.4c-8.5,4.1-18.3,6.1-29.5,6.1c-8.3,0-16.1-1.3-23.5-3.9c-7.4-2.6-13.8-6.3-19.4-11.3
		c-5.5-4.9-9.9-11-13.1-18.3c-3.2-7.2-4.8-15.5-4.8-24.8c0-9,1.5-17.1,4.6-24.4c3.1-7.3,7.3-13.5,12.6-18.6
		c5.3-5.1,11.6-9,18.8-11.8c7.2-2.8,15-4.2,23.5-4.2c8.1,0,15.6,1.4,22.3,4.1c6.8,2.7,12.6,6.7,17.5,11.8
		c4.9,5.2,8.7,11.4,11.4,18.8C770.8,291.2,772.2,299.6,772.2,309z M738.8,295.1c0-5.8-1.8-10.7-5.4-14.8c-3.6-4.1-9-6.2-16.3-6.2
		c-3.5,0-6.8,0.6-9.7,1.7c-3,1.1-5.5,2.6-7.7,4.5c-2.2,1.9-4,4.2-5.3,6.7c-1.3,2.6-2.1,5.3-2.2,8.1H738.8z"/>
	<path class="st0" d="M798.3,358.1c0,1.4-0.5,2.6-1.4,3.6c-1,1.1-2.2,1.6-3.8,1.6s-2.8-0.5-3.8-1.6c-1-1.1-1.4-2.3-1.4-3.6
		s0.5-2.6,1.4-3.6c1-1.1,2.2-1.6,3.8-1.6s2.8,0.5,3.8,1.6C797.9,355.6,798.3,356.8,798.3,358.1z"/>
	<path class="st0" d="M822.4,300.2c0,1.4-0.5,2.5-1.4,3.3c-1,0.9-2,1.3-3.2,1.3c-1.2,0-2.2-0.4-3.2-1.3c-1-0.9-1.4-2-1.4-3.3
		s0.5-2.5,1.4-3.3s2-1.3,3.2-1.3c1.2,0,2.2,0.4,3.2,1.3S822.4,298.8,822.4,300.2z M821,362.8h-6.6v-45.2h6.6V362.8z"/>
	<path class="st0" d="M883.4,340.2c0,3.4-0.6,6.6-1.8,9.5s-2.8,5.4-5,7.5c-2.1,2.1-4.7,3.8-7.6,5c-3,1.2-6.2,1.8-9.8,1.8
		c-3.5,0-6.7-0.6-9.7-1.8c-3-1.2-5.5-2.8-7.6-5c-2.1-2.1-3.8-4.6-5-7.5c-1.2-2.9-1.8-6.1-1.8-9.5c0-3.4,0.6-6.6,1.8-9.5
		c1.2-2.9,2.8-5.4,5-7.5c2.1-2.1,4.7-3.8,7.6-5c3-1.2,6.2-1.8,9.7-1.8c3.5,0,6.8,0.6,9.8,1.8c3,1.2,5.5,2.8,7.6,5
		c2.1,2.1,3.8,4.6,5,7.5C882.8,333.6,883.4,336.8,883.4,340.2z M876.5,340.2c0-2.5-0.4-4.9-1.2-7.1c-0.8-2.2-1.9-4.2-3.4-5.8
		c-1.5-1.6-3.3-2.9-5.4-3.9c-2.1-1-4.5-1.4-7.1-1.4c-2.6,0-5,0.5-7.1,1.4c-2.1,1-3.9,2.3-5.4,3.9c-1.5,1.6-2.6,3.6-3.4,5.8
		c-0.8,2.2-1.2,4.6-1.2,7.1c0,2.5,0.4,4.9,1.2,7.1c0.8,2.2,1.9,4.2,3.4,5.8c1.5,1.6,3.3,2.9,5.4,3.9c2.1,0.9,4.5,1.4,7.1,1.4
		c2.6,0,5-0.5,7.1-1.4c2.1-0.9,3.9-2.2,5.4-3.9c1.5-1.6,2.6-3.6,3.4-5.8C876.1,345.1,876.5,342.7,876.5,340.2z"/>
</g>
</svg>
